<svg width="128" height="142" viewBox="0 0 128 142" fill="none" xmlns="http://www.w3.org/2000/svg">
<path d="M0 6H46.75M93.5 6H46.75M46.75 6V103.5" stroke="#FFCF00" stroke-width="11"/>
<path fill-rule="evenodd" clip-rule="evenodd" d="M84.5 130C92.5949 130 99.9767 126.947 105.556 121.929L115.346 129.172C115.32 129.199 115.293 129.225 115.267 129.251L127.735 139.312L101.506 138.55C96.2821 140.771 90.5345 142 84.5 142C60.4756 142 41 122.524 41 98.5C41 74.4756 60.4756 55 84.5 55C108.524 55 128 74.4756 128 98.5C128 108.013 124.946 116.813 119.765 123.973L118.234 118.101L108.844 118.492C113.315 113.053 116 106.09 116 98.5C116 81.103 101.897 67 84.5 67C67.103 67 53 81.103 53 98.5C53 115.897 67.103 130 84.5 130Z" fill="#FFCF00"/>
</svg>
